<svg viewBox="0 0 983 196" xmlns="http://www.w3.org/2000/svg" fill-rule="evenodd" clip-rule="evenodd" stroke-linecap="round" stroke-linejoin="round" stroke-miterlimit="1.5"><path d="M194.073 300.189a4.524 4.524 0 00-4.148 1.929c-.522.75-1.419 1.148-2.332 1.139l-40.857-.38 28.909-28.375c.643-.632 1.545-.978 2.433-.822a4.558 4.558 0 001.715-.033c1.872-.39 3.332-1.984 3.556-3.882a4.537 4.537 0 00-5.082-5.052 4.552 4.552 0 00-3.866 3.598 4.566 4.566 0 00-.015 1.711c.166.905-.184 1.828-.84 2.472l-26.842 26.347s7.063-16.422 9.299-21.508c.355-.808 1.075-1.36 1.921-1.609a4.545 4.545 0 003.151-5.326 4.516 4.516 0 00-3.456-3.458 4.541 4.541 0 00-5.513 4.433c0 .896.261 1.73.71 2.432.493.77.529 1.75.174 2.592l-9.395 22.35.001-38.427c0-.912.398-1.807 1.145-2.33a4.524 4.524 0 001.918-4.147c-.21-2.26-2.171-4.065-4.44-4.101a4.535 4.535 0 00-4.61 4.534c0 1.522.75 2.866 1.901 3.688a2.86 2.86 0 011.183 2.333v41.418l-28.255-28.255c-.633-.633-.982-1.527-.832-2.409a4.556 4.556 0 00-.038-1.71c-.395-1.866-1.987-3.321-3.882-3.543a4.537 4.537 0 00-5.049 5.091c.239 1.907 1.724 3.496 3.611 3.86.602.116 1.186.11 1.735.005.898-.172 1.818.174 2.465.82l26.061 26.062s-17.42-7.309-22.656-9.551c-.809-.346-1.364-1.062-1.612-1.905a4.544 4.544 0 00-5.325-3.151 4.511 4.511 0 00-3.458 3.456 4.54 4.54 0 004.432 5.513c.899 0 1.735-.263 2.439-.715.76-.488 1.728-.523 2.564-.18l19.797 8.105-33.596.5c-.911.014-1.809-.378-2.335-1.122a4.523 4.523 0 00-4.138-1.897c-2.257.213-4.058 2.173-4.095 4.44a4.535 4.535 0 004.534 4.61 4.523 4.523 0 003.715-1.938c.521-.746 1.386-1.176 2.296-1.19l40.461-.601.199.081-28.453 29.311c-.627.647-1.525 1.002-2.415.862a4.546 4.546 0 00-1.675.048 4.557 4.557 0 00-3.528 3.878 4.538 4.538 0 005.108 5.048c1.907-.246 3.492-1.737 3.848-3.628a4.579 4.579 0 00-.006-1.751c-.179-.9.161-1.826.8-2.484l25.353-26.119s-6.867 16.983-8.937 22.146c-.32.801-1.017 1.356-1.845 1.6a4.54 4.54 0 00-3.149 5.325 4.511 4.511 0 003.457 3.458 4.54 4.54 0 005.511-4.432 4.51 4.51 0 00-.745-2.488c-.498-.757-.539-1.728-.208-2.572l7.958-20.292.163 34.68c.004.909-.389 1.802-1.132 2.326a4.518 4.518 0 00-1.903 4.142c.212 2.257 2.171 4.059 4.438 4.096a4.534 4.534 0 002.69-8.237 2.857 2.857 0 01-1.191-2.325l-.187-39.991 29.246 28.973c.635.629.987 1.521.84 2.403a4.538 4.538 0 00.042 1.702 4.557 4.557 0 003.882 3.536 4.538 4.538 0 005.046-5.101c-.243-1.906-1.731-3.493-3.62-3.852a4.536 4.536 0 00-1.746 0c-.895.176-1.815-.168-2.463-.81l-26.081-25.837s16.289 6.846 21.282 8.964c.805.341 1.357 1.052 1.604 1.891a4.544 4.544 0 005.326 3.15 4.515 4.515 0 003.458-3.457 4.541 4.541 0 00-4.433-5.512c-.878 0-1.695.251-2.388.684-.753.469-1.7.502-2.522.169l-24.294-9.815 40.794.38a2.852 2.852 0 012.301 1.176 4.522 4.522 0 003.689 1.904 4.535 4.535 0 004.535-4.608c-.036-2.272-1.845-4.236-4.108-4.443z" fill="url(#_Linear1)" transform="translate(43.61 -193.607) scale(.95663)"/><path d="M326.148 626.594l-.01 13.333c-49.411-4.33-88.821-43.763-93.117-93.183h25.566a8.482 8.482 0 018.482 8.482v6.472a11.248 11.248 0 01-11.248 11.248h-.852c8.832 20.092 24.999 36.247 45.1 45.066v-2.4a8.482 8.482 0 018.482-8.482h6.472a11.248 11.248 0 0111.248 11.248v8.216h-.123zm8.811 0l.009 13.333c49.411-4.33 88.822-43.763 93.117-93.183h-25.566a8.483 8.483 0 00-8.482 8.482v6.472c0 2.983 1.185 5.844 3.295 7.953a11.244 11.244 0 007.953 3.295h.852c-8.832 20.092-24.998 36.247-45.1 45.066v-2.4a8.481 8.481 0 00-8.482-8.482h-6.471a11.245 11.245 0 00-7.954 3.295 11.244 11.244 0 00-3.295 7.953v8.216h.124zm-88.601-88.903l-13.333-.01c4.33-49.411 43.764-88.821 93.183-93.117v25.566a8.481 8.481 0 01-8.482 8.482h-6.471a11.248 11.248 0 01-11.249-11.248v-.852c-20.092 8.832-36.247 24.999-45.066 45.1h2.4a8.482 8.482 0 018.482 8.482v6.472c0 2.983-1.185 5.844-3.294 7.954a11.252 11.252 0 01-7.954 3.294h-8.216v-.123zm168.391 0l13.333-.01c-4.331-49.411-43.764-88.821-93.184-93.117v25.566a8.482 8.482 0 008.482 8.482h6.472c2.983 0 5.844-1.185 7.954-3.294a11.252 11.252 0 003.294-7.954v-.852c20.093 8.832 36.248 24.999 45.066 45.1h-2.4a8.483 8.483 0 00-8.482 8.482v6.472a11.248 11.248 0 0011.249 11.248h8.216v-.123z" fill="url(#_Linear2)" transform="translate(-151.753 -444.564)"/><path d="M228.53 528.338c-25.866 5.498-81.812 21.977-76.314 47.843 5.498 25.866 65.398 16.234 91.264 10.736-.822-.412-1.75-1.124-2.873-1.051-16.139 1.051-59.221 3.096-63.21-15.674-4.259-20.035 41.881-30.594 51.133-41.854z" fill="url(#_Linear3)" stroke="#000" stroke-width=".17" transform="translate(-151.753 -444.564)"/><path d="M424.306 495.008c26.06-4.485 84.128-9.926 88.614 16.134 4.486 26.061-54.716 39.328-80.776 43.813.611-.687 1.209-1.693 2.279-2.042 15.377-5.008 56.146-19.084 52.891-37.995-3.474-20.186-50.24-12.882-63.008-19.91z" fill="url(#_Linear4)" stroke="#000" stroke-width=".17" transform="translate(-151.753 -444.564)"/><text font-family="'Perpetua-Bold','Perpetua',serif" font-weight="700" font-size="130" fill="#34499e" transform="translate(392.247 91)">Immedia</text><text font-family="'Perpetua-Bold','Perpetua',serif" font-weight="700" font-size="130" fill="#34499e" transform="translate(879.877 91)">te</text><text font-family="'Perpetua-Bold','Perpetua',serif" font-weight="700" font-size="130" fill="#34499e" transform="translate(392.247 187)">Connect</text><defs><linearGradient id="_Linear1" x1="0" y1="0" x2="1" y2="0" gradientUnits="userSpaceOnUse" gradientTransform="rotate(90 -55.98 199.335) scale(99.846)"><stop offset="0" stop-color="#6accdf"/><stop offset=".4" stop-color="#00b2d8"/><stop offset=".5" stop-color="#00b1e6"/><stop offset=".7" stop-color="#0077bf"/><stop offset=".9" stop-color="#2e51a3"/><stop offset="1" stop-color="#34489e"/></linearGradient><linearGradient id="_Linear2" x1="0" y1="0" x2="1" y2="0" gradientUnits="userSpaceOnUse" gradientTransform="translate(88.839 542.246) scale(361.323)"><stop offset="0" stop-color="#fff"/><stop offset=".4" stop-color="#00b2d8"/><stop offset=".5" stop-color="#00b1e6"/><stop offset=".7" stop-color="#0077bf"/><stop offset=".9" stop-color="#3051a3"/><stop offset="1" stop-color="#34499e"/></linearGradient><linearGradient id="_Linear3" x1="0" y1="0" x2="1" y2="0" gradientUnits="userSpaceOnUse" gradientTransform="translate(88.839 542.246) scale(361.323)"><stop offset="0" stop-color="#fff"/><stop offset=".4" stop-color="#00b2d8"/><stop offset=".5" stop-color="#00b1e6"/><stop offset=".7" stop-color="#0077bf"/><stop offset=".9" stop-color="#3051a3"/><stop offset="1" stop-color="#34499e"/></linearGradient><linearGradient id="_Linear4" x1="0" y1="0" x2="1" y2="0" gradientUnits="userSpaceOnUse" gradientTransform="translate(88.839 542.246) scale(361.323)"><stop offset="0" stop-color="#fff"/><stop offset=".4" stop-color="#00b2d8"/><stop offset=".5" stop-color="#00b1e6"/><stop offset=".7" stop-color="#0077bf"/><stop offset=".9" stop-color="#3051a3"/><stop offset="1" stop-color="#34499e"/></linearGradient></defs></svg>