<svg xmlns="http://www.w3.org/2000/svg" fill="#020a27" width="62" height="73"><g clip-path="url(#a)"><path d="M29.517.36a3.238 3.238 0 012.966 0L53.92 11.562c.918.48 1.483 1.366 1.483 2.325v45.226c0 .959-.565 1.845-1.483 2.325L32.483 72.64c-.918.48-2.048.48-2.966 0L8.079 61.438c-.918-.48-1.483-1.366-1.483-2.325V13.887c0-.959.565-1.845 1.483-2.325L29.517.36z"/><path stroke="#fff" d="M30 4.74a2.07 2.07 0 012 0l17.96 9.98c.617.342.986.968.986 1.634v40.292c0 .666-.37 1.292-.985 1.634l-17.962 9.98a2.07 2.07 0 01-2 0l-17.96-9.98a1.877 1.877 0 01-.986-1.634V16.354c0-.666.37-1.292.985-1.634L30 4.74z"/><path d="M0 31.855h62l-5.277 8.627L62 49.109H0l5.277-8.627L0 31.855z"/><path fill="#fff" d="M14.825 45.127h-1.687l-3.02-7.226h-.053a23.845 23.845 0 01.078 1.445c.008.212.013.41.013.597v5.184H8.822v-9.475h1.675l3.02 7.09h.046a99.034 99.034 0 01-.045-.77c-.009-.243-.017-.468-.026-.675a27.75 27.75 0 01-.006-.577v-5.068h1.34v9.475zm7.795-4.75a9.57 9.57 0 01-.188 1.963 5.067 5.067 0 01-.56 1.55 2.71 2.71 0 01-.973 1.01c-.395.238-.865.357-1.41.357-.554 0-1.03-.121-1.43-.363-.408-.25-.745-.6-.98-1.018a5.138 5.138 0 01-.56-1.555 9.909 9.909 0 01-.18-1.957c0-1.072.118-1.966.354-2.683.236-.722.59-1.264 1.057-1.627.468-.363 1.047-.544 1.74-.544.73 0 1.324.205 1.783.615.464.41.803.983 1.018 1.718.22.73.328 1.575.328 2.534h.001zm-4.812 0c0 .79.062 1.454.186 1.99.13.535.318.94.567 1.211a1.2 1.2 0 00.921.409c.37 0 .677-.132.922-.396.244-.268.43-.667.553-1.199.125-.535.187-1.207.187-2.015 0-1.206-.14-2.109-.418-2.71-.275-.6-.688-.9-1.237-.9-.374 0-.685.136-.934.408-.25.273-.436.676-.56 1.212-.125.532-.187 1.195-.187 1.99zm12.98 2.067c0 .553-.109 1.041-.323 1.465a2.41 2.41 0 01-.909.991c-.39.238-.852.357-1.384.357-.254 0-.499-.015-.735-.045a3.904 3.904 0 01-1.327-.415v-1.465c.318.194.653.343 1.005.447.357.1.687.15.992.15.27 0 .498-.059.683-.176a1.16 1.16 0 00.42-.486 1.6 1.6 0 00.14-.68c0-.264-.04-.489-.122-.674a1.357 1.357 0 00-.419-.532 5.24 5.24 0 00-.83-.55 8.324 8.324 0 01-.748-.487 3.069 3.069 0 01-.573-.557 2.4 2.4 0 01-.36-.72 3.473 3.473 0 01-.123-.978c-.009-.514.09-.966.296-1.354.21-.39.507-.69.89-.901.381-.216.83-.322 1.345-.318a4.272 4.272 0 012.023.525l-.413 1.277a3.755 3.755 0 00-.824-.363 2.479 2.479 0 00-.74-.123 1.2 1.2 0 00-.632.155.976.976 0 00-.393.422 1.34 1.34 0 00-.135.615c0 .277.04.508.122.694.086.185.23.358.432.518.206.16.487.34.843.538.4.225.733.465 1 .72.265.25.465.533.598.848.133.316.2.683.2 1.102zm3.406-6.792c.94 0 1.636.238 2.087.713.455.471.683 1.184.683 2.139 0 .484-.058.916-.174 1.296a2.59 2.59 0 01-.528.972 2.23 2.23 0 01-.876.603c-.353.138-.769.207-1.25.207h-.567v3.545h-1.417v-9.475h2.042zm-.09 1.225h-.535v3.474h.432c.352 0 .642-.06.87-.182.232-.13.41-.34.502-.59.111-.272.167-.626.167-1.062 0-.58-.118-.996-.354-1.251-.232-.26-.593-.389-1.082-.389zm8.141 8.25l-.599-2.663h-2.164l-.599 2.663h-1.52l2.28-9.475h1.79l2.32 9.475h-1.508zm-.837-3.934l-.612-2.858a47.842 47.842 0 01-.25-1.523 6.979 6.979 0 01-.059.467 8.3 8.3 0 01-.084.505c-.03.173-.064.35-.103.532l-.599 2.877h1.707zm6.628 3.934l-2.074-7.524h-.052c.022.29.037.557.046.804.012.242.021.46.025.654.01.19.013.355.013.493v5.573h-1.333v-9.475h1.97l1.998 7.181h.038l1.997-7.18h1.977v9.474h-1.365V39.56c0-.155.002-.328.006-.518.005-.195.011-.41.02-.648.013-.238.026-.5.038-.785h-.045l-2.08 7.518h-1.179zm-29.179-14.6H16.74v-7.341l.016-.685.03-.668c-.187.26-.388.509-.603.747l-.98 1.018-1.268-1.26 3.037-3.18h1.886v11.37-.001zm8.595-5.685c0 .86-.05 1.649-.154 2.364-.098.71-.266 1.328-.503 1.851-.237.519-.556.92-.958 1.206-.402.28-.904.42-1.507.42-.68 0-1.252-.2-1.716-.6-.459-.398-.807-1.026-1.044-1.881-.237-.86-.355-1.98-.355-3.36 0-1.332.113-2.429.34-3.29.227-.865.57-1.508 1.028-1.928.464-.42 1.046-.63 1.747-.63.695 0 1.272.218 1.731.653.464.436.812 1.086 1.044 1.952.231.866.347 1.947.347 3.243zm-4.104 0c0 .902.028 1.646.085 2.232.062.58.162 1.014.302 1.299.144.28.342.42.595.42.257 0 .456-.14.595-.42.144-.285.244-.718.301-1.299.057-.586.085-1.33.085-2.232 0-.876-.028-1.607-.085-2.193-.056-.586-.157-1.024-.3-1.314-.14-.296-.339-.444-.596-.444-.248 0-.443.146-.588.436-.144.29-.247.728-.309 1.314-.057.586-.085 1.32-.085 2.201zm11.54 0c0 .86-.052 1.649-.155 2.364-.097.71-.265 1.328-.502 1.851-.237.519-.556.92-.959 1.206-.4.28-.904.42-1.507.42-.68 0-1.252-.2-1.716-.6-.458-.398-.806-1.026-1.043-1.881-.237-.86-.356-1.98-.356-3.36 0-1.332.114-2.429.34-3.29.227-.865.57-1.508 1.028-1.928.464-.42 1.046-.63 1.747-.63.696 0 1.273.218 1.732.653.463.436.811 1.086 1.043 1.952.232.866.348 1.947.348 3.243zm-4.104 0c0 .902.028 1.646.085 2.232.061.58.162 1.014.301 1.299.144.28.343.42.595.42.258 0 .456-.14.596-.42.144-.285.244-.718.3-1.299.058-.586.086-1.33.086-2.232 0-.876-.028-1.607-.085-2.193-.057-.586-.157-1.024-.3-1.314-.14-.296-.339-.444-.597-.444-.247 0-.443.146-.587.436-.144.29-.248.728-.31 1.314-.056.586-.084 1.32-.084 2.201zm7.42-5.848c.696 0 1.247.316 1.654.949.407.627.61 1.495.61 2.605 0 1.14-.198 2.025-.595 2.652-.39.622-.948.933-1.67.933-.695 0-1.24-.319-1.638-.956-.396-.643-.595-1.52-.595-2.629 0-1.14.193-2.017.58-2.629.391-.617.943-.925 1.654-.925zm.015 1.47c-.21 0-.37.174-.479.52-.103.343-.154.87-.154 1.58 0 .72.051 1.254.154 1.602.108.342.273.513.495.513.216 0 .373-.169.471-.506.098-.342.147-.878.147-1.61 0-.715-.05-1.244-.154-1.586-.103-.342-.263-.513-.48-.513zm6.33-1.307l-4.366 11.37h-1.57l4.375-11.37h1.562zm.418 4.379c.696 0 1.247.316 1.654.948.407.628.61 1.496.61 2.606 0 1.135-.198 2.017-.594 2.644-.392.622-.949.933-1.67.933-.706 0-1.255-.321-1.646-.964-.392-.648-.588-1.52-.588-2.613 0-1.156.194-2.038.58-2.644.386-.607.938-.91 1.654-.91zm0 1.446c-.216 0-.373.177-.47.53-.099.352-.148.883-.148 1.593 0 .716.05 1.245.147 1.587.103.342.265.513.486.513.227 0 .387-.184.48-.552.092-.373.14-.89.14-1.548 0-.663-.05-1.182-.148-1.555-.098-.378-.26-.568-.487-.568zM30.018 63.71l-6.274-6.195V49.67l6.274 6.194 10.875-10.736v7.846L30.018 63.709v.001z"/></g><defs><linearGradient id="b" x1="31" x2="31" y1="0" y2="73" gradientUnits="userSpaceOnUse"><stop stop-color="#3481AB"/><stop offset="1" stop-color="#2D7094"/></linearGradient><clipPath id="a"><path fill="#fff" d="M0 0h62v73H0z"/></clipPath></defs></svg>