<svg xmlns="http://www.w3.org/2000/svg" fill="#020a27" width="102" height="50"><path d="M20.4 10.106H96a6 6 0 016 6v20.709a6 6 0 01-6 6H20.4v-32.71.001z"/><path d="M20.4 30.549H102v6.266a6 6 0 01-6 6H20.4V30.549z"/><g filter="url(#b)"><path d="M20.4 0C12.734 8.073 0 6.25 0 6.25v21.875C0 41.015 20.4 50 20.4 50s20.4-8.984 20.4-21.875V6.25S28.066 8.073 20.4 0z"/><path stroke="#fff" d="M20.399 45.186a45.296 45.296 0 01-2.4-1.22c-1.57-.859-3.66-2.111-5.748-3.691-4.212-3.19-8.253-7.593-8.253-12.681V10.008c.305.027.723.057 1.231.074a26.72 26.72 0 004.406-.217c3.363-.45 7.528-1.697 10.766-4.886 3.237 3.189 7.402 4.435 10.766 4.885 1.75.234 3.296.254 4.406.217.508-.018.926-.047 1.23-.074v17.585c0 5.088-4.04 9.493-8.253 12.682-2.087 1.58-4.178 2.833-5.748 3.69-.788.431-1.589.839-2.401 1.222h-.002z"/><path fill="#fff" d="M18.974 32.965l-7.534-6.308 1.998-2.398 4.937 4.133L26.462 16.9l2.55 1.8-10.04 14.265h.002z"/></g><path fill="#fff" d="M52.677 22.804c0 .718-.152 1.352-.456 1.902a3.25 3.25 0 01-1.292 1.289c-.551.31-1.203.465-1.954.465-.35 0-.69-.022-1.016-.065a5.81 5.81 0 01-.965-.196 6.273 6.273 0 01-.947-.384v-2.342c.46.283.936.498 1.43.645.493.147.95.22 1.368.22.31 0 .566-.057.767-.171.206-.114.358-.27.456-.465.103-.196.155-.416.155-.661 0-.261-.043-.49-.13-.686-.085-.201-.252-.4-.498-.595-.242-.202-.598-.433-1.068-.694-.368-.207-.7-.419-1-.637a4.197 4.197 0 01-.757-.718 2.907 2.907 0 01-.473-.922 4.136 4.136 0 01-.164-1.232c-.006-.675.132-1.265.413-1.771a2.94 2.94 0 011.232-1.175c.54-.283 1.185-.422 1.937-.416.51 0 1.01.065 1.498.195a6.73 6.73 0 011.42.555l-.662 2.024a5.566 5.566 0 00-1.154-.514 3.382 3.382 0 00-1.016-.171 1.43 1.43 0 00-.697.155 1.022 1.022 0 00-.422.408 1.257 1.257 0 00-.138.595c0 .283.046.523.138.719.092.195.264.389.516.58.259.184.629.407 1.11.668.524.289.96.596 1.31.922.35.321.614.683.792 1.086.178.397.267.86.267 1.387zm7.319 3.493h-5.657V14.366h5.657v1.95h-3.237v2.808h3.013v1.958h-3.014v3.224h3.238v1.991zm6.19-10.127a1.56 1.56 0 00-.963.31c-.276.206-.505.5-.69.88a5.294 5.294 0 00-.404 1.331c-.086.512-.13 1.07-.13 1.673 0 .887.09 1.638.268 2.252.178.61.44 1.072.784 1.388.344.315.763.473 1.257.473.39 0 .76-.063 1.11-.188.35-.125.698-.274 1.042-.448v2.04a4.89 4.89 0 01-1.17.432c-.438.1-.886.15-1.335.147-.947 0-1.754-.236-2.42-.71-.66-.479-1.165-1.172-1.515-2.08-.35-.915-.526-2.022-.526-3.322 0-.892.098-1.711.293-2.457.2-.75.494-1.4.878-1.95a4.104 4.104 0 011.413-1.29c.562-.304 1.205-.456 1.928-.456.505 0 .993.06 1.464.18.476.122.934.308 1.36.554l-.688 1.893a4.6 4.6 0 00-.94-.473 2.842 2.842 0 00-1.015-.18v.001zm11.927-1.804v8.006c0 .914-.15 1.673-.448 2.276a2.996 2.996 0 01-1.317 1.363c-.58.3-1.298.45-2.153.45-1.246 0-2.204-.333-2.876-.996-.666-.67-1-1.684-1-3.044v-8.055h2.412v7.973c0 .756.126 1.298.38 1.624.252.321.62.482 1.1.482.34 0 .618-.069.836-.205.224-.141.39-.367.5-.677.115-.31.172-.723.172-1.24v-7.957h2.394zm5.123 0c.93 0 1.702.128 2.317.384.614.255 1.07.639 1.369 1.15.304.512.456 1.154.456 1.926 0 .49-.063.936-.19 1.338a3.052 3.052 0 01-.594 1.07c-.288.33-.632.606-1.016.816l2.592 5.247h-2.66l-2.058-4.676h-.724v4.676h-2.42V14.366h2.928zm-.017 1.934h-.49v3.51h.542c.54 0 .947-.156 1.222-.466.282-.31.422-.778.422-1.404 0-.56-.14-.974-.422-1.24-.275-.267-.7-.4-1.274-.4zm11.788 9.997H89.35V14.366h5.657v1.95h-3.238v2.808h3.014v1.958h-3.014v3.224h3.238v1.991zM48.9 37.845c0 .302-.06.567-.18.798-.121.23-.292.41-.513.54a1.49 1.49 0 01-.775.196c-.266 0-.53-.037-.786-.11a2.407 2.407 0 01-.376-.16v-.983c.183.119.372.209.567.27.196.062.377.093.543.093a.581.581 0 00.304-.072.439.439 0 00.18-.195.744.744 0 00.01-.565.663.663 0 00-.196-.25 2.81 2.81 0 00-.424-.29 3.969 3.969 0 01-.396-.268 1.704 1.704 0 01-.3-.3 1.243 1.243 0 01-.188-.388 1.831 1.831 0 01-.065-.516c-.003-.283.052-.53.164-.743.113-.212.276-.376.488-.493.214-.118.47-.176.768-.174.203 0 .4.027.595.082.195.055.383.132.563.233l-.263.848a2.153 2.153 0 00-.457-.215 1.276 1.276 0 00-.403-.072.545.545 0 00-.277.065.417.417 0 00-.167.171.55.55 0 00-.055.25.739.739 0 00.055.301c.047.096.117.18.204.243.103.078.25.171.44.28.208.122.38.25.52.387a1.356 1.356 0 01.42 1.037zm3.417 0c0 .302-.06.567-.181.798-.12.23-.292.41-.513.54-.218.13-.476.196-.775.196a2.89 2.89 0 01-.785-.11 2.407 2.407 0 01-.376-.16v-.983c.182.119.37.209.567.27.196.062.377.093.543.093a.581.581 0 00.304-.072.44.44 0 00.18-.195.746.746 0 00.01-.565.666.666 0 00-.197-.25 2.813 2.813 0 00-.423-.29 3.969 3.969 0 01-.396-.268 1.71 1.71 0 01-.301-.3 1.247 1.247 0 01-.188-.388 1.824 1.824 0 01-.065-.516 1.56 1.56 0 01.164-.743c.114-.212.277-.376.489-.493.213-.118.47-.176.768-.174.203 0 .4.027.594.082.196.055.384.132.564.233l-.263.848a2.153 2.153 0 00-.458-.215 1.278 1.278 0 00-.403-.072.548.548 0 00-.277.065.417.417 0 00-.167.171.553.553 0 00-.054.25.75.75 0 00.054.301.67.67 0 00.205.243c.102.078.25.171.44.28.208.122.38.25.52.387.139.135.243.287.314.456.07.166.106.36.106.581zm1.009 1.465v-5.003h.96v4.168h1.328v.835h-2.288zm7.04 0h-2.243v-5.003h2.244v.818h-1.284v1.177h1.195v.821h-1.195v1.352h1.284v.835zm4.548 0h-1.127l-1.462-3.49h-.027c.014.161.024.314.03.458.01.141.016.271.018.39.004.119.007.226.007.322v2.32h-.895v-5.003h1.12l1.455 3.412h.027a60.339 60.339 0 01-.04-.818 8.277 8.277 0 01-.008-.319v-2.275h.902v5.003zm2.959-4.247a.597.597 0 00-.383.13.985.985 0 00-.273.37c-.07.157-.124.343-.16.557a4.46 4.46 0 00-.052.702c0 .372.036.687.106.945.07.255.174.45.31.581a.69.69 0 00.5.199c.154 0 .3-.026.44-.079.14-.052.277-.115.413-.188v.856c-.143.08-.298.14-.464.181-.164.041-.34.062-.53.062-.375 0-.695-.1-.96-.298-.261-.201-.461-.492-.6-.873-.14-.383-.208-.847-.208-1.393 0-.374.038-.717.116-1.03.08-.315.196-.587.348-.818.153-.233.34-.413.56-.54.223-.128.478-.192.765-.192.2 0 .394.025.58.075.188.05.367.128.54.233l-.273.794a1.786 1.786 0 00-.372-.199 1.073 1.073 0 00-.403-.075zm3.177-.756c.37 0 .675.053.92.16.243.108.424.269.542.483.12.214.18.484.18.808 0 .205-.024.392-.074.561a1.32 1.32 0 01-.236.448c-.104.13-.24.244-.403.342l1.028 2.201h-1.055l-.816-1.96h-.287v1.96h-.96v-5.003h1.16zm-.006.81h-.195v1.472h.215c.214 0 .376-.065.485-.195.112-.13.167-.326.167-.588 0-.235-.055-.409-.167-.52-.11-.112-.278-.168-.505-.168v-.001zm3.996 1.223l.667-2.033h.987l-1.182 3.076v1.927h-.953v-1.9l-1.181-3.103h.993l.67 2.032-.001.001zm3.72-2.033c.509 0 .886.132 1.13.397.25.262.374.645.374 1.15 0 .253-.032.483-.096.69a1.431 1.431 0 01-.283.531 1.256 1.256 0 01-.482.343c-.193.08-.422.12-.686.12h-.263v1.772h-.96v-5.003h1.267zm-.071.818h-.235v1.591h.167a.78.78 0 00.383-.086.537.537 0 00.232-.273 1.32 1.32 0 00.078-.497c0-.255-.052-.441-.157-.557-.102-.12-.258-.178-.468-.178zm4.11 4.185h-.946v-4.172h-.93v-.831h2.798v.831H82.8v4.172zm1.829 0v-5.003h.96v5.003h-.96zm5.606-2.509c0 .398-.037.756-.11 1.075a2.503 2.503 0 01-.328.811c-.145.224-.33.395-.553.514-.22.118-.48.178-.78.178-.3 0-.561-.06-.784-.178a1.507 1.507 0 01-.553-.52 2.536 2.536 0 01-.328-.815 4.79 4.79 0 01-.11-1.071c0-.562.068-1.033.202-1.414.134-.38.334-.668.598-.862.264-.194.59-.291.976-.291.403 0 .735.104.994.311.262.208.457.505.584.89.128.383.192.84.192 1.372zm-2.552 0c0 .384.03.704.09.962.058.256.146.449.262.579a.56.56 0 00.43.191.556.556 0 00.43-.188c.117-.126.203-.316.26-.572.06-.255.09-.579.09-.972 0-.586-.066-1.022-.196-1.307-.13-.287-.324-.431-.584-.431a.554.554 0 00-.43.195c-.116.13-.204.324-.263.582-.06.258-.09.578-.09.961zm7.105 2.509H93.66l-1.46-3.49h-.028c.014.161.024.314.03.458.01.141.016.271.018.39.005.119.007.226.007.322v2.32h-.895v-5.003h1.12l1.455 3.412h.027a60.339 60.339 0 01-.04-.818 8.276 8.276 0 01-.007-.319v-2.275h.9v5.003z"/><defs><linearGradient id="a" x1="61.2" x2="61.2" y1="10.106" y2="42.815" gradientUnits="userSpaceOnUse"><stop stop-color="#4C90B4"/><stop offset="1" stop-color="#2F769D"/></linearGradient><linearGradient id="c" x1="20.4" x2="20.4" y1="0" y2="50" gradientUnits="userSpaceOnUse"><stop stop-color="#609BBB"/><stop offset="1" stop-color="#2D7094"/></linearGradient><filter id="b" width="40.801" height="50" x="0" y="0" color-interpolation-filters="sRGB" filterUnits="userSpaceOnUse"><feFlood flood-opacity="0" result="BackgroundImageFix"/><feBlend in="SourceGraphic" in2="BackgroundImageFix" result="shape"/><feColorMatrix in="SourceAlpha" result="hardAlpha" values="0 0 0 0 0 0 0 0 0 0 0 0 0 0 0 0 0 0 127 0"/><feOffset/><feGaussianBlur stdDeviation="2"/><feComposite in2="hardAlpha" k2="-1" k3="1" operator="arithmetic"/><feColorMatrix values="0 0 0 0 0 0 0 0 0 0 0 0 0 0 0 0 0 0 0.25 0"/><feBlend in2="shape" result="effect1_innerShadow_131_17"/></filter></defs></svg>